<?xml version="1.0" encoding="utf-8"?>
<!-- Generator: Adobe Illustrator 26.0.3, SVG Export Plug-In . SVG Version: 6.00 Build 0)  -->
<svg version="1.1" id="Ebene_1" xmlns="http://www.w3.org/2000/svg" xmlns:xlink="http://www.w3.org/1999/xlink" x="0px" y="0px"
	 viewBox="0 0 595.3 841.9" style="enable-background:new 0 0 595.3 841.9;" xml:space="preserve">
<style type="text/css">
	.st0{fill:none;}
	.st1{font-family:'FjallaOne-Regular';}
	.st2{font-size:20px;}
	.st3{fill:#131313;}
	.st4{fill:none;stroke:url(#SVGID_1_);stroke-linecap:round;stroke-linejoin:round;stroke-miterlimit:10;}
	
		.st5{fill:none;stroke:url(#SVGID_00000004525068777029128490000008755624549387702948_);stroke-linecap:round;stroke-linejoin:round;stroke-miterlimit:10;}
	
		.st6{fill:none;stroke:url(#SVGID_00000098221006514772054160000007574311523622245566_);stroke-linecap:round;stroke-linejoin:round;stroke-miterlimit:10;}
</style>
<rect x="164.6" y="320.3" class="st0" width="110.3" height="32.3"/>
<text transform="matrix(1 0 0 1 189.1516 338.0332)" class="st1 st2" style="color: white">coderse</text>
<circle class="st3" cx="219.8" cy="287.8" r="24.5"/>
<g>
	<linearGradient id="SVGID_1_" gradientUnits="userSpaceOnUse" x1="202.5449" y1="287.7811" x2="236.9894" y2="287.7811">
		<stop  offset="4.469413e-03" style="stop-color:#F6A321"/>
		<stop  offset="1" style="stop-color:#E52624"/>
	</linearGradient>
	<path class="st4" d="M203,282.7c0.3,0,3.7-0.4,4.1,3.7c0.5,4.3,4.8,10.7,7.1,10.7c2.3,0,7.3-18.8,11.6-18.4
		c4.2,0.3,6.7,14.4,10.7,14.3"/>
	
		<linearGradient id="SVGID_00000061458908336555141580000001837927975622345123_" gradientUnits="userSpaceOnUse" x1="202.5449" y1="287.0863" x2="236.9894" y2="287.0863">
		<stop  offset="4.469413e-03" style="stop-color:#F6A321"/>
		<stop  offset="1" style="stop-color:#E52624"/>
	</linearGradient>
	
		<path style="fill:none;stroke:url(#SVGID_00000061458908336555141580000001837927975622345123_);stroke-linecap:round;stroke-linejoin:round;stroke-miterlimit:10;" d="
		M203,282.7c0.3,0,4,1.4,4.1,4.1c0.1,3.2,4.8,4.9,7.2,4.9c2.3,0,8.1-10.4,11.5-10.4c4.2,0,6.7,11.7,10.7,11.6"/>
	
		<linearGradient id="SVGID_00000106144387817684913820000015038461543941932193_" gradientUnits="userSpaceOnUse" x1="202.5449" y1="288.5211" x2="236.9894" y2="288.5211">
		<stop  offset="4.469413e-03" style="stop-color:#F6A321"/>
		<stop  offset="1" style="stop-color:#E52624"/>
	</linearGradient>
	
		<path style="fill:none;stroke:url(#SVGID_00000106144387817684913820000015038461543941932193_);stroke-linecap:round;stroke-linejoin:round;stroke-miterlimit:10;" d="
		M203,282.7c0.3,0,4,1.5,4.3,5.1c0.2,2.5,4.5,6.6,6.8,6.6s7.4-10.8,11.7-10.7c4.2,0.1,6.7,9.2,10.7,9.2"/>
</g>
</svg>
